<?xml version="1.0" encoding="utf-8"?>

<!DOCTYPE svg PUBLIC "-//W3C//DTD SVG 1.1//EN" "http://www.w3.org/Graphics/SVG/1.1/DTD/svg11.dtd">
<svg version="1.1" id="Layer_1" xmlns="http://www.w3.org/2000/svg" xmlns:xlink="http://www.w3.org/1999/xlink" x="0px" y="0px"
	 viewBox="0 0 1855.7679 991.876" enable-background="new 0 0 1855.7679 991.876" xml:space="preserve">
<g>
	<path d="M1724.5431,921.8174c-12.1647-0.0003-24.3298-0.0682-36.4933,0.0514c-2.7574,0.0271-3.9063-0.5618-4.4801-3.6248
		c-1.7358-9.2632,0.5366-18.0156,3.1318-26.6082c0.9329-3.0885,0.0856-6.7215,2.6482-9.38c0.5107-0.53,0.342-1.7411-0.626-2.0627
		c-1.5695-0.5214-2.9349-0.1431-3.8523,1.3947c-3.8898,6.52-7.3955,13.112-8.239,20.9163
		c-0.5989,5.5386-1.8268,11.0363-3.145,16.4621c-1.29,5.3098-5.7705,2.1108-8.7667,2.7867
		c-3.1525,0.7112-2.6758-1.7637-2.9292-3.7429c-0.9127-7.1299-0.939-14.2809-0.9642-21.4484
		c-0.01-2.8293,0.4578-5.3393,2.7583-7.0479c2.2937-1.7035,1.8827-4.5012,3.0503-6.6501c0.4553-0.8383,0.7412-2.4293-0.9053-2.8505
		c-1.1464-0.2933-2.3822-0.2075-3.1423,0.9293c-6.4369,9.6289-14.7415,18.1804-13.8735,31.3583
		c0.6138,9.3148-3.4303,12.0353-12.2869,9.3585c-4.3134-1.3036-8.61-1.2551-12.7778-0.6855
		c-4.6041,0.6292-4.3517-1.8835-3.6272-4.5071c2.6384-9.5566,6.2581-18.6819,11.6858-27.1031
		c7.0903-11.0011,15.2725-21.1152,25.9998-28.537c7.2124-4.9899,14.3219-10.4865,23.1644-12.9074
		c9.6084-2.6308,18.2401,0.7078,26.9991,3.5198c7.1896,2.3081,14.3433,4.7512,21.4137,7.3995
		c3.8821,1.4542,7.4725,1.1519,10.7795-1.0066c6.571-4.2896,11.5636-8.8074,11.265-18.3239
		c-0.3796-12.1055-0.5568-24.3567-3.0548-36.0062c-2.8616-13.3447-6.2719-26.7139-11.7131-39.5358
		c-3.6611-8.6272-6.965-17.4216-10.9706-25.9435c-4.8357-10.2875-10.235-20.247-16.2054-29.8961
		c-2.5011-4.0422-5.9977-5.5511-10.9675-3.9565c-3.2192,1.033-6.8666,1.027-10.2571,1.1951
		c-19.9041,0.9863-39.8212,2.2134-59.7646,0.8972c-7.8644-0.519-15.7635-0.7504-23.5811-1.6718
		c-8.3958-0.9896-16.672-3.2354-25.0781-3.827c-8.4365-0.5938-16.4041-3.2612-24.6836-4.5157
		c-12.6707-1.9199-25.0829-5.7897-37.2562-10.2996c-8.8297-3.2711-17.5753-6.8952-25.679-11.3448
		c-12.7181-6.9833-25.2394-14.5031-37.0791-23.0111c-17.4973-12.5732-34.1689-26.1443-50.0977-40.6668
		c-11.4027-10.3961-21.7014-21.8667-32.712-32.6207c-8.4595-8.2622-19.453-13.2198-29.3798-19.5569
		c-5.6553-3.61-11.6465-5.387-18.3657-3.8914c-0.9131,0.2033-2.3044-0.3536-2.6128,0.7889c-0.4745,1.759,1.4978,1.5753,2.309,1.9229
		c6.0669,2.5992,12.3558,4.7092,18.3135,7.5259c4.801,2.2698,9.7648,4.3336,12.2391,10.0379
		c1.2202,2.8128,4.5325,4.777,7.0411,6.9608c6.4242,5.5921,12.374,11.6419,17.8202,18.1809c3.8031,4.566,2.965,6.8021-2.9491,7.6403
		c-8.2019,1.1624-16.4506,2.0026-24.6392,3.2454c-11.9685,1.8164-23.896,3.9005-35.851,5.8087
		c-9.7654,1.5588-19.5424,3.0457-29.3193,4.5298c-7.9528,1.2073-15.911,2.3776-23.8706,3.5383
		c-10.0571,1.4666-20.1366,2.7908-30.1722,4.3915c-9.4392,1.5056-18.8252,3.3417-28.2504,4.9398
		c-10.3352,1.7524-20.714,3.259-31.0273,5.1282c-11.9846,2.1721-23.8677,4.9437-35.8895,6.8604
		c-12.0594,1.9226-23.8844,4.8776-35.8475,7.192c-13.3262,2.5781-26.7672,4.5588-40.1406,6.8714
		c-13.2252,2.2869-26.3859,4.981-39.6457,7.1279c-14.5939,2.363-28.9631,6.1654-43.3813,9.5491
		c-22.8392,5.36-45.7698,10.4025-68.4161,16.4926c-22.1997,5.9702-44.2889,12.3695-66.5353,18.1852
		c-19.3945,5.07-38.8051,10.0784-58.1912,15.1805c-24.2271,6.3762-48.4338,12.8303-72.6547,19.2296
		c-7.1599,1.8917-14.3178,3.799-21.5208,5.5136c-2.2723,0.5409-4.445,1.0645-6.3985,2.4218
		c-3.4921,2.4261-4.8961-1.3483-7.1071-2.6009c-0.4939-0.2798-0.0834-0.8971,2.2797-1.554
		c15.7427-4.3755,31.1888-9.678,46.6153-15.0224c42.0791-14.5778,83.123-31.7991,124.4291-48.3805
		c18.2471-7.3249,36.6907-14.2565,54.742-22.0355c64.3116-27.7141,129.0335-54.4901,192.2524-84.7137
		c30.3368-14.5034,61.2716-27.7425,90.5226-44.4652c21.6129-12.3561,43.0331-25.0573,62.6428-40.4202
		c20.5338-16.0867,41.0011-32.3192,58.7119-51.6673c12.2666-13.4004,23.045-27.8697,33.0249-43.049
		c6.5236-9.922,11.4937-20.6011,17.186-30.9265c1.4584-2.6454,2.7339-6.0893,5.9136-1.2206c1.1857,1.8156,3.4099,0.928,5.1444,0.983
		c20.724,0.6576,40.475,4.9649,58.3114,15.9684c13.4822,8.3173,26.33,17.5666,38.989,27.1073
		c24.8782,18.7502,47.1876,39.9876,64.9893,65.6917c14.4146,20.8135,28.5074,41.8526,43.1202,62.5251
		c11.9388,16.8896,26.4083,31.5079,42.3652,44.6518c11.3505,9.3496,22.6506,18.7213,35.3065,26.375
		c11.031,6.6711,22.6327,12.2638,35.0131,15.2499c16.1069,3.8848,32.5576,5.1667,48.6637-1.1753
		c2.9452-1.1597,5.729-0.8875,8.1433,2.2681c24.3167,31.7852,41.5249,67.0618,51.6862,105.6967
		c4.248,16.1519,5.9293,32.7972,8.1123,49.3643c2.4534,18.619,2.1957,37.231,1.5013,55.7739
		c-0.8157,21.7789-5.4509,42.9063-18.6997,61.1088c-6.3315,8.6986-14.423,15.4759-23.4639,21.2272
		c-1.7571,1.1178-3.4796,0.9116-5.2534,0.9175C1748.2057,921.8369,1736.3743,921.8177,1724.5431,921.8174z"/>
	<path d="M149.3144,857.9829c11.8655,0.4417,31.6958,6.4815,51.2792,13.4534c2.8625,1.0192,4.2413,0.7089,6.1738-1.5909
		c12.0011-14.2826,24.8217-27.8306,38.4621-40.5429c36.9427-34.4287,77.3739-63.1382,126.595-77.7795
		c11.8837-3.5349,23.8013-6.4915,35.9854-8.4847c2.1924-0.3586,2.6572-1.7473,3.1224-3.2265
		c7.4378-23.6516,16.3449-46.7557,28.5789-68.3226c13.8441-24.405,30.4035-46.8962,51.8085-65.3686
		c16.7373-14.4443,35.9383-24.7603,56.3081-33.1964c20.1356-8.3392,40.1569-16.9509,60.5367-24.6884
		c6.4479-2.4481,13.0629-4.5154,19.3441-7.3307c15.2311-6.8268,31.0714-12.0869,46.4665-18.4852
		c15.7282-6.5369,31.5768-12.7834,47.3411-19.2345c15.3524-6.2825,30.6648-12.6628,45.9932-19.004
		c0.1515-0.0626,0.2705-0.2109,0.4237-0.261c2.1176-0.6931,4.8798-2.5276,6.2063-1.7887c1.9342,1.0774-0.6236,3.3996-0.8973,5.28
		c-1.4604,10.0377-8.2126,17.5003-13.3524,25.6285c-19.6874,31.1336-43.9537,58.4474-71.2986,83.0105
		c-22.1037,19.855-44.3504,39.5612-66.8974,58.9094c-22.2286,19.075-43.0817,39.4052-61.6779,62.0886
		c-13.256,16.1696-26.9405,31.9468-36.575,50.7323c-5.4365,10.6002-9.7253,21.6247-13.1986,32.9728
		c-1.3397,4.3773-3.9128,6.8744-8.2037,8.3813c-47.706,16.7531-95.1437,34.2371-142.2289,52.6677
		c-45.9301,17.9785-90.894,38.1076-134.7852,60.6258c-2.4453,1.2545-4.8738,3.924-8.0659,1.0676
		c-0.3861-0.3455-2.064,0.1336-2.6385,0.7228c-2.7666,2.8372-6.209,2.6369-9.7118,2.6185
		c-10.4963-0.0553-21.0078-0.3687-31.4859,0.0714c-12.629,0.5304-25.246,1.0089-37.8888,0.9701
		c-3.662-0.0113-5.0843-0.9268-3.3071-4.5469c0.0724-0.1475,0.1985-0.3385,0.1575-0.462
		c-2.5752-7.7512,3.1615-14.1911,3.4199-21.5331c0.1146-3.257,2.8114-6.0177,2.6753-9.4702
		c-0.0562-1.4256,0.4342-3.2451-1.4638-3.8381c-1.9908-0.622-2.6424,0.9178-3.7401,2.3237
		c-7.9852,10.226-11.4883,22.0932-13.1446,34.6716c-0.3123,2.3716-1.5715,2.8971-3.7305,2.8295
		c-4.1612-0.1304-8.333,0.0611-12.4928-0.0899c-1.4522-0.0527-3.8959,1.0928-4.14-1.2911
		c-0.2482-2.4233-1.6669-5.8534,1.3739-7.1741c2.0193-0.877,1.5526-1.8124,1.6221-3.1372
		c0.3378-6.4383,0.8831-12.827,5.3241-18.0662c0.1997-0.2355,0.2221-0.6164,0.3466-0.9216
		c0.9424-2.3094,2.3769-5.4212,0.3318-6.8781c-2.428-1.7297-4.6716,0.3345-6.9816,2.4787
		c-9.3803,8.7066-13.641,20.0454-17.2525,31.7316c-0.8268,2.6754-1.9304,3.3841-4.4526,3.3484
		c-7.4961-0.106-14.9951-0.0893-22.4919-0.0163c-3.7656,0.0367-4.5213-1.8809-2.6741-4.5838
		c10.3483-15.1426,18.8984-31.667,32.8978-44.0526C102.378,865.8708,119.4458,857.2817,149.3144,857.9829z"/>
	<path d="M1575.3204,490.644c-5.9971,0-11.9944,0.0054-17.9916-0.0024c-2.688-0.0035-4.4321-1.1988-6.1041-3.472
		c-9.3473-12.7083-18.0625-25.8505-27.9441-38.2181c-5.6578-7.0811-12.2323-12.9733-18.3235-19.465
		c-0.3412-0.3637-0.7615-0.6559-1.0862-1.032c-1.7355-2.0099-4.3286-4.6674-3.4395-6.7088c1.0028-2.3026,4.1663-0.0057,6.2656,0.359
		c18.64,3.238,37.2145,7.3817,56.0677,8.6231c24.9983,1.646,50.0597,1.0135,72.7572-11.8459
		c10.7933-6.115,19.7719-14.4259,25.6919-25.6504c4.2509-8.0596,2.3711-16.2909,1.158-24.5998
		c-2.8781-19.7142-15.7993-32.991-29.7789-45.0846c-19.5299-16.8949-41.8301-29.4881-66.0186-38.6122
		c-18.7689-7.0799-38.3241-11.3971-57.6857-16.4397c-14.7174-3.8331-29.3947-8.0257-43.5018-13.8
		c-15.0341-6.1537-29.9846-12.5671-43.4937-21.7863c-17.4086-11.8804-33.4237-25.4092-45.38-42.895
		c-7.4476-10.8921-10.1622-23.6988-11.7355-36.8041c-1.4823-12.3469,0.2714-24.0388,5.1018-35.2932
		c7.5167-17.5133,19.3192-31.4216,36.0602-40.7712c9.0865-5.0747,18.9448-7.9364,29.1171-10.3662
		c14.178-3.3866,28.4492-5.4407,42.9198-5.5679c9.3276-0.082,18.5554,1.8873,27.8055,3.4942
		c10.618,1.8444,20.8352,4.8415,30.7859,8.5442c16.0334,5.9662,31.3143,13.6834,44.7031,24.5181
		c16.269,13.1653,30.3862,28.25,40.05,47.0976c4.0602,7.9185,7.51,16.0408,9.4442,24.7612
		c0.4675,2.1075,1.4688,3.9538,2.8259,5.6777c1.1953,1.5182,2.3632,3.1873,2.9861,4.983c0.4418,1.2746,0.7715,3.2207-0.4441,4.2059
		c-1.0021,0.8124-1.9993-0.7439-3.0365-1.1454c-5.16-1.9978-8.3282-6.4523-12.2584-9.9315
		c-9.538-8.4435-20.1417-15.3988-31.8748-20.0258c-8.2443-3.2512-17.3572-4.2486-26.0038-6.5471
		c-6.6543-1.7689-13.5111-2.619-20.1099-4.4251c-6.6014-1.8069-13.3256-3.0778-19.8684-5.2598
		c-9.5942-3.1995-19.2302-6.2854-28.4303-10.4485c-12.0594-5.4571-24.0652-11.1411-34.2295-19.8846
		c-4.0238-3.4613-8.6346-6.6224-11.5526-10.8941c-4.0299-5.8992-9.261-4.665-13.5979-2.7682
		c-13.5554,5.929-25.4802,14.1102-32.1791,28.1169c-7.8557,16.4258-6.6124,32.7485,0.887,48.765
		c8.1556,17.4176,22.5359,29.0769,38.4437,38.7567c9.5703,5.8236,18.4995,12.7266,28.8422,17.3277
		c8.4646,3.7656,17.0284,7.0964,26.1316,8.9155c13.9469,2.787,28.0591,4.9336,41.8032,8.4994
		c16.0056,4.1525,31.8256,8.9717,47.2534,15.2222c25.3822,10.2834,50.0594,21.7731,71.9646,38.3533
		c19.6194,14.85,34.6781,33.7292,43.7615,56.6011c17.0962,43.0475,1.7568,88.3251-37.3184,113.133
		c-13.0077,8.2582-26.929,14.3271-41.9579,18.3025C1607.1505,489.2968,1591.4443,491.4171,1575.3204,490.644z"/>
	<path d="M1269.3569,924.6573c-10.5238,0.5572-19.6548-0.3325-28.8019-0.7791c-1.3617-0.0665-2.8326-0.0401-3.3585-1.5032
		c-0.5076-1.4113,0.8938-1.888,1.7725-2.6145c1.8495-1.529,2.4106-2.6649,0.5922-5.2521c-2.2797-3.2436-2.2902-7.6094-1.2822-11.564
		c1.6678-6.5447,4.0011-12.7958,8.0703-18.3684c1.3889-1.9017,1.8644-4.5662,2.3912-6.9625c0.2737-1.2452,0.9064-3.2719-1.382-3.571
		c-1.5392-0.201-3.5209-0.7991-4.3665,1.2838c-1.6328,4.0216-5.1725,6.4447-7.802,9.6271
		c-2.6586,3.2177-5.3793,6.5565-5.0392,10.978c0.2195,2.8533-1.9858,4.5102-2.8062,6.7401
		c-2.3413,6.3635-2.6606,12.8569-3.3478,19.3647c-0.1371,1.299-0.4117,1.789-1.6278,1.7758
		c-0.1664-0.0018-0.3363-0.009-0.4991,0.0185c-9.8079,1.6542-11.6221,0.1746-11.9215-10.1118
		c-0.2725-9.3609,1.7051-18.336,5.0089-27.0531c0.3483-0.9193,0.8391-1.8981,0.7932-2.826
		c-0.0653-1.3206,1.0186-3.176-1.0673-3.8438c-1.7517-0.5609-2.5837,0.7036-3.5414,1.9929
		c-7.9408,10.6909-11.0957,22.9997-12.3632,35.9688c-0.0485,0.4963-0.076,0.9954-0.0967,1.4938
		c-0.1781,4.3363-1.8104,6.2341-6.7112,5.6199c-7.0757-0.8868-14.2646-0.9751-21.4115-1.1339
		c-2.7264-0.0606-3.7203-0.7471-3.7115-3.6575c0.0259-8.566,4.3618-15.6014,8.3654-22.473
		c10.4574-17.9485,23.4458-33.7526,42.1818-43.7782c8.7772-4.6966,18.0437-8.633,28.2169-7.908
		c5.6464,0.4024,11.175,2.4948,16.7501,3.8526c13.662,3.3269,27.6239,2.5345,41.4945,3.3176
		c22.7438,1.2841,39.7324-10.2661,55.8409-23.8016c13.528-11.3669,24.4807-25.1512,35.0946-39.233
		c3.4431-4.5684,7.6068-8.6218,10.7524-13.4818c1.5005-2.3181,1.338-3.6758-1.0076-5.713
		c-7.717-6.7024-14.6068-14.2336-21.5284-21.7919c-6.7235-7.3419-13.03-14.974-19.2114-22.7097
		c-7.6615-9.588-14.4565-19.8768-22.2572-29.3425c-6.3152-7.6633-8.8264-17.0097-12.6605-25.7028
		c-5.975-13.5467-8.6565-28.1411-11.2485-42.7013c-0.5944-3.3397,0.595-3.4862,3.1125-3.8724
		c16.1364-2.476,32.2435-5.1402,48.3745-7.6524c5.719-0.8907,11.4877-1.459,17.2141-2.3063
		c4.3572-0.6448,7.6699,1.0723,10.755,3.9458c8.647,8.054,17.568,15.8207,26.057,24.0352
		c8.5734,8.2961,18.3389,14.7158,28.9301,20.0239c8.1757,4.0976,15.7223,9.1345,22.7133,15.0435
		c2.6249,2.2184,3.4603,4.5359,2.1807,7.8564c-10.9858,28.5076-4.147,55.505,7.1141,82.1016
		c0.6626,1.5648,1.822,2.7644,3.1649,3.7853c4.7549,3.6152,5.2454,7.6746,1.0562,11.9407
		c-7.1053,7.2356-14.2532,14.4415-21.641,21.3853c-18.6505,17.5295-37.2279,35.1672-57.0743,51.3475
		c-31.476,25.6618-64.6056,48.6259-103.2053,62.7087C1293.8523,923.7278,1281.2708,926.1074,1269.3569,924.6573z"/>
	<path d="M851.9459,471.861c-0.1384,9.0698-2.1094,16.5895-5.5671,23.9243c-14.1151,29.9415-33.0529,56.5701-54.4559,81.6832
		c-20.8775,24.4965-43.0228,47.7198-66.7024,69.4891c-13.9479,12.8226-28.3498,25.1343-43.2217,36.8724
		c-4.6384,3.6609-8.1535,8.3105-12.0208,12.6016c-14.3248,15.8948-29.6871,30.9358-41.3581,49.0805
		c-4.5607,7.0906-8.6374,14.4283-11.9077,22.196c-1.1682,2.7747-2.93,4.2947-5.9592,5.2474
		c-24.3193,7.6488-48.5645,15.5335-72.8297,23.3542c-5.7607,1.8568-11.5119,3.7433-17.2665,5.6188
		c-0.7294,0.2378-1.4438,1.2467-2.1869,0.5146c-0.7811-0.7695-0.2915-1.7795-0.02-2.774
		c1.4822-5.4297,3.3944-10.7096,5.8055-15.7746c9.4854-19.9258,22.4039-37.5867,36.0812-54.7788
		c21.851-27.4662,48.4841-49.8479,74.9874-72.5577c31.3129-26.8309,62.0226-54.4437,88.8426-85.9884
		c11.7076-13.7701,24.2512-26.8352,35.0875-41.3392c9.1909-12.3016,16.6956-25.542,21.7651-40.0938
		c0.3248-0.9323,0.5663-2.4903,1.1439-2.6446c5.1764-1.3833,4.8099-5.925,5.8325-9.7039c0.7582-2.8019,2.9111-4.5649,5.3651-5.4617
		c13.6774-4.9985,26.3973-12.1828,39.9977-17.3368c1.2289-0.4657,2.5223-0.7592,3.7604-1.2032
		c9.6581-3.464,11.2213-2.7956,13.2467,7.2851C851.2038,464.2432,852.3043,468.4995,851.9459,471.861z"/>
	<path d="M629.887,404.1701c-0.0697,22.2954-1.9384,44.4794-3.8744,66.6755c-1.6546,18.9699-4.7511,37.7333-7.1254,56.5986
		c-0.9938,7.8967-7.634,8.9743-12.8625,11.1631c-17.3482,7.2621-35.2275,13.0751-53.2389,18.5267
		c-8.6178,2.6084-16.4107,7.249-23.7411,12.5833c-4.9267,3.5852-10.3061,6.2726-16.3359,7.6912
		c-2.2627,0.5323-2.774-0.1392-2.6377-2.0102c0.3501-4.8057,0.5092-9.6506,1.2807-14.3926
		c0.6605-4.0604,2.3445-7.5494,7.4125-8.0046c4.306-0.3868,2.4757-3.9733,1.9352-5.7686
		c-1.1172-3.7111-3.1343-7.1506-4.7707-10.7067c-0.8714-1.8937-1.0786-3.8011-0.1766-5.7699
		c3.4988-7.6369,6.8574-15.4029,14.7889-19.663c2.1422-1.1505,2.9857-2.8997,2.082-4.851c-1.5829-3.418-1.327-7.1446-2.354-10.6257
		c-1.5585-5.2825-0.2781-8.7503,4.2787-11.8433c1.3684-0.9288,2.6543-1.9784,3.9947-2.9498
		c4.1419-3.0017,4.2585-6.6955,2.1107-10.9718c-1.8008-3.5853-2.486-7.5372-3.5071-11.3996
		c-2.2822-8.6322,4.0063-13.4914,8.1993-18.9923c4.9744-6.5262,5.4199-6.4031-0.1317-12.7324
		c-3.5279-4.0222-2.4246-8.3224-0.8025-12.5704c0.6912-1.8103,1.9365-3.4235,3.0193-5.0674
		c5.3601-8.1377,5.7499-8.4228,0.2286-15.594c-7.2382-9.4011-5.6653-18.5246,0.7348-27.2376
		c2.4041-3.2727,3.036-5.254-0.0425-8.7811c-5.1268-5.8736-6.3926-13.2157-5.0517-20.9813
		c0.4003-2.3186,1.8445-3.8162,3.3472-5.2185c3.2911-3.0712,3.2541-5.5959-0.408-8.4047
		c-8.1135-6.2227-10.7811-20.4951-6.3231-27.003c1.1534-1.6839,1.9765-2.5359,4.2646-1.8233
		c15.1644,4.7231,30.7194,7.0464,46.5748,8.1555c8.4775,0.593,16.921,0.7442,25.3872,0.7943
		c2.8106,0.0166,4.2641,1.1228,4.723,3.9178c2.4045,14.6426,4.7482,29.2692,6.1523,44.0755
		C628.697,368.6948,630.0427,386.3793,629.887,404.1701z"/>
	<path d="M625.34,292.2129c-21.3609,0.2477-42.5228-1.2343-63.6389-5.0759c-19.9467-3.6289-38.8563-9.8423-57.4714-17.6838
		c-13.8802-5.847-27.6022-11.7987-39.7625-20.7654c-5.7298-4.2251-11.2968-8.709-16.262-13.8799
		c-7.1404-7.4361-6.9176-17.45,0.553-27.8113c7.1626-9.9339,16.7188-10.1697,27.1722-7.2265
		c2.7376,0.7708,5.6152,1.4509,8.1432,3.1625c2.4513,1.6597,4.6827,1.0644,6.8918-1.3502
		c9.8862-10.8053,21.7269-18.9221,35.6156-23.594c7.5723-2.5472,15.3337-4.4031,23.4701-5.147
		c10.4767-0.9579,20.824-0.8284,31.218,0.217c12.3183,1.2389,24.2657,4.1023,35.8147,8.564
		c22.5457,8.7101,41.929,21.8426,56.4605,41.3967c11.2352,15.1183,17.6855,32.0331,17.2689,51.1366
		c-0.1623,7.439-2.4678,9.2353-9.7126,10.8615c-9.1335,2.0501-18.3026,3.6839-27.5644,4.9717
		C644.1766,291.2903,634.8008,292.1126,625.34,292.2129z"/>
	<path d="M898.1009,925.9393c-9.1856,0.6081-18.2643-1.4476-27.4205-1.0619c-8.2727,0.3485-16.5532,0.855-24.7821,1.7397
		c-3.5494,0.3816-3.2885-1.601-2.7968-3.4777c2.6079-9.9551,3.7783-20.2803,7.6843-29.9042
		c0.6118-1.5072,1.3396-3.6512-0.3919-4.4363c-1.5977-0.7243-2.8313,1.1133-3.834,2.4651
		c-7.2905,9.8292-12.5888,20.4965-13.712,32.8795c-0.2073,2.2852-1.3856,3.0242-3.3036,2.3987
		c-2.4534-0.7999-4.9875-1.0646-7.4033-0.6498c-5.1759,0.8889-6.8409-2.0161-7.0923-6.2417
		c-0.5432-9.1318,0.1771-18.1594,3.7556-26.7032c1.3568-3.2396,0.9086-6.5378,1.0878-9.8281
		c0.0416-0.7629,0.1957-1.761-0.9056-2.0237c-1.1827-0.282-1.7867,0.4866-2.346,1.3918
		c-5.396,8.7322-10.0479,17.759-11.8273,28.0332c-0.8681,5.0123-2.0294,9.9734-3.0082,14.9674
		c-0.2476,1.2632-0.6922,2.5622-2.1451,2.0425c-8.8126-3.1517-17.7589-0.0079-26.6102-0.7169
		c-0.8262-0.0662-1.6763-0.0411-2.4728-0.2339c-2.9356-0.7107-4.6065-1.6143-2.8125-5.3743
		c3.4034-7.1334,6.1354-14.5863,9.1827-21.8914c0.3036-0.7278,0.7024-1.6869,1.3187-1.9709
		c5.9536-2.7446,8.5176-8.5786,12.4206-13.2238c6.5295-7.7713,15.4623-12.4011,24.2136-17.0068
		c15.0139-7.902,31.0952-11.8755,48.1619-11.1096c3.4518,0.1549,6.9073,0.7106,10.3033,1.3764
		c1.2532,0.2456,2.1495,0.673,2.8988-0.7082c0.7534-1.3889-0.1877-1.9681-0.982-2.894
		c-5.9088-6.8873-12.2666-13.3668-18.3049-20.1378c-8.9653-10.0533-18.9988-19.0666-29.1277-28.0044
		c-5.8839-5.1918-12.1301-9.9823-18.3817-14.444c-15.1574-10.8179-31.0152-20.67-48.0872-28.4533
		c-9.3314-4.2542-19.0325-7.3504-28.5886-10.9135c-0.7361-0.2745-1.9639-0.7944-1.9609-1.1931
		c0.0087-1.1856,1.4481-1.0521,2.1566-1.2381c33.2546-8.7335,66.0755-19.0815,99.5941-26.8201
		c3.7124-0.8571,7.2954,0.803,9.9316,3.0356c44.7321,37.8854,79.0332,83.07,96.322,139.8138
		c3.1476,10.3308,5.1125,21.0833,6.845,31.7673c1.8613,11.4786-4.9678,22.3836-17.6149,25.4944
		c-3.1941,0.7856-6.4156,1.4688-9.6417,2.1131C911.7073,926.139,904.8877,925.902,898.1009,925.9393z"/>
	<path d="M541.8998,393.7792c-4.127-5.5347-4.5446-12.174-5.6564-18.6124c-0.6041-3.499-1.0318-6.8593,2.8401-9.0453
		c1.2527-0.7072,1.4153-1.831,1.1641-3.6792c-0.9176-6.7496-3.8412-12.9337-4.9482-19.5865
		c-0.8537-5.1312-1.4102-10.5319,1.7519-14.8646c3.068-4.2039,1.8173-7.2245-0.876-10.5334
		c-4.9483-6.079-7.4847-13.4468-5.684-20.7101c1.3218-5.3312-0.6306-6.3558-4.323-7.7446
		c-13.02-4.8973-25.2424-11.6234-38.2477-16.5955c-8.0531-3.0787-14.6768-8.9745-22.6276-12.4315
		c-3.4221-1.488-5.3832-1.1055-7.1315,2.292c-3.3024,6.4182-6.9803,12.6418-10.3729,19.015
		c-7.3954,13.8926-16.0029,27.1489-21.653,41.9604c-3.0301,7.9434-5.5972,16.1259-11.711,22.5749
		c-6.1992,6.539-3.3162,16.8826,5.4304,19.5754c4.2147,1.2976,8.6856,2.6195,13.0016,2.5021
		c4.7594-0.1296,5.7217,1.6336,5.1567,5.6365c-0.1153,0.8167-0.0167,1.6635-0.0167,2.8883
		c0.2596,3.5787-1.6771,9.3069,4.9792,9.1022c3.2254-0.0992,5.9183,0.1827,8.8802,1.173c1.4379,0.4807,3.2735-0.5929,3.1945,2.2031
		c-0.0647,2.2908-1.612,2.6237-3.2032,3.1047c-0.3164,0.0957-0.6516,0.1355-0.9808,0.1819
		c-8.165,1.1489-9.7854,4.3859-6.1198,12.0405c3.1044,6.4826,6.0243,12.9871,0.9545,19.9163
		c-0.532,0.7272-0.6937,1.9008-0.6476,2.8489c0.506,10.4028,8.2011,21.9639,20.0418,23.894
		c10.5191,1.7147,21.1733,1.1373,31.7531,1.808c4.3494,0.2757,4.9008,2.265,4.0035,5.1623
		c-2.4719,7.9823-2.2442,16.3238-3.6136,24.4545c-4.0189,23.8622-7.0241,47.8935-10.58,71.8358
		c-2.5066,16.877-5.2625,33.7172-7.9163,50.5723c-0.0729,0.4628-0.4931,1.1831-0.3422,1.3149
		c0.6525,0.57,1.048-0.2217,1.5079-0.5182c6.386-4.1182,11.6764-9.5232,17.2479-14.6099c5.0837-4.6413,7.8796-9.9833,6.7939-17.1095
		c-0.5233-3.4344-0.3881-6.9705-0.5284-10.4615c-0.2122-5.2811,0.8082-10.377,4.2123-14.4235
		c2.5928-3.082,6.6736-5.2743,2.4772-9.8956c-0.2614-0.2878-0.1276-0.9678-0.1172-1.4642
		c0.2541-12.0637,1.5243-23.7869,11.5037-32.368c1.3172-1.1327,2.0696-2.5885,1.3486-3.8811
		c-3.2493-5.8248-0.284-11.2206,0.762-16.7778c0.7521-3.9951,1.9861-7.1268,5.9293-9.5916
		c5.6544-3.5344,5.8591-7.2839,2.3126-12.6508c-0.4393-0.6649-0.8969-1.4856-0.9074-2.2402
		c-0.1181-8.5124,0.1198-16.9633,6.3341-23.7822c1.0516-1.1538,2.0366-2.2311,1.34-3.9257
		c-4.8115-11.7036-3.366-22.8441,2.9764-33.5638C542.5275,397.1901,543.155,395.4625,541.8998,393.7792z M501.2296,308.4593
		c-3.1474,1.9656-7.3904,2.5416-11.0023,2.4591c-3.2641-0.0745-6.5246-0.3054-9.7667-0.6917
		c-1.4496-0.1727-2.8523-0.4214-4.2833-0.6435c-1.5536-0.2411-3.1349-0.1028-4.6981-0.0779
		c-2.1164,0.0338-3.8178-0.3282-5.6443-1.3697c-1.9148-1.0919-3.678-2.472-5.62-3.5351c-3.4507-1.8891-1.6439-9.072,3.029-11.4354
		c3.3217-1.68,7.0325-2.8461,10.9133-2.5952c1.1154,0.0721,3.4858,0.0281,2.0373,2.005c-1.3701,1.8698-1.8389,4.0181-1.1986,6.2557
		c0.2847,0.995,0.7424,1.8725,1.2157,2.7751c0.5649,1.0773,0.807,2.3011,1.4318,3.3698c0.6147,1.0515,1.5057,1.9855,2.6432,2.421
		c0.8521,0.3262,1.7846,0.3556,2.6967,0.3811c0.9255,0.0259,1.851,0.0518,2.7766,0.0777c0.7531,0.0211,1.5221,0.0401,2.2419-0.1822
		c1.2922-0.399,2.0608-1.437,2.9084-2.4082c0.8181-0.9373,1.5876-1.8613,2.2021-2.9626c1.2704-2.2771,1.8509-4.8712,1.6076-7.472
		c-0.2468-2.638,0.5344-3.3196,2.7953-2.6287c2.2993,0.7025,4.9138-0.1295,6.973,1.8823
		C509.2468,298.7326,509.6204,303.2189,501.2296,308.4593z"/>
	<path d="M714.818,315.1938c0.2875,3.5495-0.7368,6.7398-2.5492,9.1423c-1.9445,2.5776-1.4439,3.4488,1.0473,4.7055
		c10.6914,5.3933,15.6386,16.1214,12.8841,28.0346c-0.6018,2.6032-0.3414,3.3203,2.6771,4.157
		c10.2275,2.8349,16.1707,11.4254,16.8655,24.0992c0.1633,2.9768,0.2133,4.3537,3.9275,5.0051
		c11.5906,2.0328,16.4652,10.7724,19.1413,21.1746c0.5706,2.2178,0.5826,4.1604,3.8978,4.6132
		c16.2496,2.2195,23.4937,11.1807,19.8875,26.4913c-1.0079,4.2792-2.5649,8.5585-5.7544,11.9293
		c-0.6713,0.7095-1.4905,1.5289-1.6714,2.4142c-1.9778,9.6816-10.4532,12.0598-17.6396,15.9686
		c-13.6142,7.4052-28.5302,11.6889-42.6165,17.9521c-5.0939,2.2648-10.1136,4.696-15.1926,6.9953
		c-0.838,0.3794-2.3864,2.023-2.5815-0.1389c-0.7665-8.4913-6.5839-14.5205-10.4367-21.3824
		c-12.4625-22.1955-24.2968-44.6729-34.7717-67.8857c-5.8711-13.0104-11.5011-26.1422-16.2086-39.569
		c-4.1204-11.7523-7.8113-23.7152-10.8467-35.8555c-2.2323-8.9284-4.2737-17.8712-6.1487-26.8788
		c-0.8519-4.0923,0.7571-4.7401,3.5764-4.835c7.7889-0.2618,15.4792-1.341,23.197-2.2679
		c9.6052-1.1536,19.1813-1.6575,28.3031-5.8979c10.6286-4.9407,22.7911,1.1408,28.5027,13.395
		C713.6044,309.3419,715.5429,312.058,714.818,315.1938z"/>
	<path d="M1199.1613,460.1821c-18.5923,0.1318-32.5906-1.2305-46.5333-3.3126c-1.0013-0.1495-2.2808-0.1909-2.3253-1.3199
		c-0.0497-1.2588,1.2327-1.8468,2.2943-2.3638c16.0093-7.7956,30.261-18.3452,41.6195-31.7661
		c7.4951-8.8561,16.5059-11.052,26.6261-12.3615c13.7711-1.7819,27.3745-4.4812,40.9459-7.3298
		c11.4105-2.395,22.7603-5.1252,33.8494-8.7505c7.0399-2.3015,13.7726-5.6635,20.9125-7.5044
		c7.6754-1.9789,14.8685-4.7968,21.7998-8.513c4.8011-2.5742,8.0927-6.4494,10.219-11.3772
		c0.4618-1.0701,0.7433-2.3639-0.1833-3.2746c-0.8588-0.8438-1.8285-0.0237-2.7284,0.3229
		c-11.4796,4.4218-22.9338,8.9115-34.4519,13.2308c-17.0709,6.4016-34.364,12.2376-52.0283,16.679
		c-13.4026,3.3699-27.0933,5.7079-40.937,6.7999c-0.8208,0.0647-1.5869,0.5933-2.0757-0.4095
		c-0.5424-1.1128,0.2424-1.8807,0.8569-2.6546c7.6747-9.6644,14.0311-20.1816,19.9706-30.9622
		c1.4302-2.5959,3.3588-5.1856,3.839-7.9871c1.5518-9.0557,8.7559-11.4474,15.7345-14.0468
		c13.6615-5.0887,26.3403-12.0963,38.8612-19.4306c19.524-11.4364,37.0581-25.4534,54.1686-40.2295
		c5.806-5.014,11.8671-9.9939,17.9567-14.8075c0.7523-0.5948,1.2982-1.8652,2.3655-1.5205
		c1.5013,0.4849,0.7616,1.9856,0.8175,3.0307c1.4493,27.0787-3.0016,53.2166-12.425,78.594
		c-5.6571,15.2345-13.709,29.2348-21.3337,43.5129c-11.8699,22.2275-29.224,39.91-45.9854,58.1509
		c-1.3501,1.4691-3.0439,2.2395-5.2572,2.356c-15.3739,0.8095-30.6482,2.847-45.9763,4.2105
		C1224.7395,458.4839,1209.7422,459.6656,1199.1613,460.1821z"/>
	<path d="M1126.9103,280.6098c-0.8772,14.0656-3.0928,28.3997-11.2197,40.1581c-7.712,11.1581-17.5001,20.9706-27.6125,30.2323
		c-13.491,12.3559-27.9261,23.5384-43.094,33.7042c-23.7936,15.947-49.2561,29.0119-74.666,42.1283
		c-20.1009,10.3759-40.283,20.5943-60.4133,30.9134c-10.4485,5.356-20.772,10.9662-31.3367,16.08
		c-4.3218,2.0919-9.099,3.2857-13.7349,4.667c-2.105,0.6272-2.089-1.1842-1.8683-2.4738c1.8383-10.7399-1.735-20.659-4.7432-30.6135
		c-1.2568-4.1588,1.782-4.9868,4.1046-6.1224c17.009-8.3153,33.6993-17.2332,50.3547-26.2249
		c36.5215-19.717,72.5862-40.1997,106.7072-63.9135c12.5792-8.7424,25.8358-16.7795,37.231-26.8885
		c14.4972-12.8611,30.6396-24.239,41.8276-40.5313c6.094-8.8744,10.8226-18.3757,10.4639-29.5787
		c-0.1487-4.6449-1.864-8.9122-3.4447-13.2103c-0.4957-1.348-1.8433-2.8024,0.1937-4.2243
		c2.1563-1.5048,3.4323-0.1722,4.6229,1.2306C1121.1588,248.7554,1126.104,263.7863,1126.9103,280.6098z"/>
	<path d="M1370.8046,249.1129c-0.9056,2.6675,0.8567,7.2847-4.964,6.9433c-1.3868-0.0813-2.0378,1.5668-2.9498,2.4974
		c-15.3301,15.6396-31.4686,30.366-49.4188,42.9723c-12.6594,8.8905-26.3616,16.0411-39.9689,23.3432
		c-6.7955,3.6467-13.9268,6.414-21.1394,9.0561c-3.0151,1.1045-3.9786,0.0567-3.4248-2.7893
		c2.4812-12.7512,3.248-25.6318,2.9454-38.5866c-0.0767-3.2766,2.439-4.5273,4.397-6.1555
		c11.7319-9.7554,22.8319-20.1708,33.3296-31.2454c12.9958-13.7099,24.6597-28.4514,35.068-44.217
		c8.0333-12.1677,15.2668-24.7733,21.6952-37.8543c0.4797-0.9765,0.5787-2.7373,1.868-2.6784c1.4457,0.066,1.6985,1.8922,2.2095,3
		c5.3224,11.5391,8.4822,23.8071,12.0664,35.9415c3.6388,12.3191,4.0305,25.3185,8.0858,37.5369
		C1370.8073,247.4902,1370.7302,248.1965,1370.8046,249.1129z"/>
	<path d="M1251.803,275.7271c-0.9121-0.0645-0.832-1.4841-0.8887-2.8292c-0.448-10.6378-2.2787-20.926-7.5198-30.3886
		c-0.6157-1.1118-1.1768-2.841,0.5519-3.322c4.4722-1.2445,5.5349-5.597,7.5233-8.6484
		c9.9402-15.253,17.9462-31.4194,23.7853-48.8334c8.103-24.1656,11.4762-48.7834,10.6217-74.11
		c-0.157-4.6495-0.6672-9.2863-0.9458-13.9331c-0.0569-0.9481,0.1943-1.9146,0.3035-2.8726
		c1.1001,0.2646,2.4354,0.2166,3.2655,0.8406c12.9631,9.7445,24.2782,21.1408,33.9615,34.1601
		c5.9933,8.0576,11.7994,16.234,17.132,24.7552c1.6118,2.5758,2.2399,4.9237,1.0822,7.734
		c-8.7777,21.3103-20.2045,41.104-33.4138,59.9827c-12.4781,17.8338-27.9916,33.0625-41.6932,49.837
		C1262.3723,272.0124,1258.0499,274.8647,1251.803,275.7271z"/>
	<path d="M1274.7728,112.6171c0.5415,23.0212-2.8964,45.5216-10.1967,67.2673c-5.3923,16.0619-13.4221,30.9706-23.7051,44.5369
		c-3.8928,5.1358-4.2565,4.9184-8.0203-0.7124c-6.7168-10.0487-11.4375-21.3357-19.2295-30.7261
		c-1.4423-1.7381-0.9481-4.0399-0.0518-6.1125c4.5465-10.514,6.6628-21.6455,8.3359-32.892
		c1.9889-13.368,1.7794-26.8235,0.8647-40.2121c-0.5713-8.3619-1.8361-16.7083-3.2373-25.0364
		c-1.7487-10.3922-4.1039-20.5369-7.3094-30.5287c-0.4978-1.5516,0.15-2.6301,1.5188-1.9757
		c2.4103,1.1525,5.0017,0.2243,7.2764,1.0287c9.694,3.428,19.8319,5.5796,29.2137,9.8651
		c7.5267,3.4381,14.6943,7.6863,21.1165,12.8372c2.9912,2.3992,1.4308,7.1802,2.3281,10.8276
		C1275.4381,97.9419,1274.6648,105.3229,1274.7728,112.6171z"/>
	<path d="M1178.6576,53.0603c4.1102,0,7.4408-0.0015,10.7712,0.0003c9.7572,0.0052,12.6681,1.7599,15.118,10.6166
		c2.996,10.8311,6.9249,21.3908,8.4904,32.6564c1.0194,7.3368,0.7126,14.445-0.2341,21.6723
		c-1.541,11.7628-0.834,23.6049-0.9589,35.4125c-0.1053,9.9749-3.6957,18.9482-7.416,27.9148
		c-1.0236,2.4666-2.0836,1.3879-3.6741,0.1837c-7.2369-5.479-14.5063-10.9135-22.296-15.633
		c-5.0338-3.0499-10.1957-5.6226-15.9075-7.0959c-2.754-0.7104-4.3951-2.1481-4.7147-5.4532
		c-1.8458-19.0904-6.7677-37.4433-13.8059-55.2598c-4.1316-10.4582-7.274-21.4844-13.6678-30.7608
		c-3.889-5.6423-1.2102-5.2701,3.0696-6.5866c8.2015-2.523,16.3773-4.5728,24.8735-6.0748
		C1165.4233,53.3944,1172.3871,53.4123,1178.6576,53.0603z"/>
	<path d="M1188.9751,513.5376c-25.8677-1.2697-49.8346-4.5957-73.4469-10.5737c-7.4863-1.8954-15.244-2.7045-22.7593-4.5043
		c-5.7269-1.3716-11.4838-1.4721-17.2689-1.8015c-0.9242-0.0526-2.4081-0.5363-2.5913-1.1378
		c-0.3468-1.1392,1.1287-1.4251,1.9414-1.8657c17.4572-9.4611,34.8752-18.9971,52.4385-28.2579
		c5.1956-2.7395,11.2648-2.1465,16.6396-1.1915c20.068,3.5657,40.2224,4.3594,60.4965,3.371
		c15.4178-0.7516,30.8264-1.6917,46.2371-2.5821c7.3643-0.4254,14.986,0.3988,21.5337-4.2138
		c2.4187-1.7039,3.9073-0.5569,5.2252,1.5656c1.4337,2.3092,0.7135,3.6798-1.3354,5.3293
		c-20.9709,16.882-43.0647,32.0982-66.5341,45.3001c-0.8433,0.4744-2.079,1.2532-2.7012,0.9639
		C1200.4136,510.9472,1193.8344,514.8773,1188.9751,513.5376z"/>
	<path d="M1135.4585,404.9897c-17.8887-0.1925-30.707,0.3047-43.4762-1.1041c-14.4165-1.5906-28.8657-2.9391-43.0854-5.9537
		c-0.925-0.1962-2.2207,0.2234-2.5735-0.9956c-0.4218-1.4581,1.0449-1.9852,1.8818-2.607
		c9.6799-7.192,19.4777-14.2278,29.0756-21.5266c1.9086-1.4515,3.7028-1.8511,5.9034-1.7983
		c10.9814,0.2637,21.947,0.6634,32.9512,0.1054c12.9263-0.6555,25.6372-2.589,38.2246-5.3457
		c24.1348-5.2857,47.4243-13.2542,70.1895-22.7944c3.0123-1.2624,5.9808-2.6301,8.9581-3.9748
		c1.8843-0.8511,2.863-0.3621,2.1583,1.7178c-7.1982,21.2456-15.421,41.9194-32.4442,57.6516
		c-2.1466,1.9837-4.9137,2.0803-7.3988,2.3979C1174.101,403.5383,1152.344,405.9951,1135.4585,404.9897z"/>
	<path d="M1102.5359,366.1501c-4.038-0.9342-8.6327,1.6555-10.3534-3.1087c-1.6115-4.4624,2.9402-5.861,5.2465-8.3201
		c5.8483-6.2361,11.639-12.5264,17.5259-18.7257c2.6112-2.7499,4.9543-4.7567,9.725-4.7477
		c7.0602,0.0134,13.9863-2.8984,20.8735-5.0646c30.3595-9.5487,55.8115-27.3503,80.1523-47.0859
		c3.2803-2.6598,6.7394-5.153,9.7039-8.133c2.7941-2.8088,4.1162-1.2348,5.3121,1.1864c2.2761,4.6081,2.8088,9.6831,1.9177,14.5483
		c-1.3361,7.2944-0.278,14.588-0.9178,21.8376c-0.4131,4.6806-0.2866,9.445-2.3905,13.9385
		c-1.3633,2.9113-3.4957,4.8151-6.1708,5.9215c-17.6135,7.2859-34.8158,15.6042-52.9065,21.6913
		c-16.4768,5.544-33.0208,10.6703-50.4092,13.0738C1120.5032,364.4529,1111.1212,364.6054,1102.5359,366.1501z"/>
	<path d="M1122.1538,456.354c-9.449-1.5618-19.2216-3.021-28.932-4.8159c-18.0391-3.3343-35.4695-9.2027-53.4485-12.8922
		c-11.7394-2.4091-22.6472-7.4828-32.6962-14.1299c-2.6968-1.7838-3.1766-3.1676,0.123-5.782
		c8.265-6.5488,17.737-10.6096,27.097-15.0401c2.0814-0.9853,3.5436-0.0252,5.1962,0.4513
		c15.5638,4.4867,31.3334,7.7372,47.5363,8.913c28.7572,2.0869,57.5441,0.3971,86.3116,0.9209
		c3.6909,0.0672,8.4879-0.1729,9.9341,2.7986c1.5664,3.2188-3.1418,5.3875-5.4348,7.3943
		c-12.8721,11.265-26.366,21.7411-41.8176,29.3407C1131.8165,455.5816,1127.0996,455.6917,1122.1538,456.354z"/>
	<path d="M1114.6199,560.6587c-7.0363,0.8631-12.0568-3.4028-17.7527-5.205c-25.4634-8.0565-50.5889-17.1064-74.6494-28.8483
		c-0.5622-0.2744-1.3726-0.2704-1.7325-0.6862c-1.1539-1.3327-3.5695-2.0197-3.2593-4.0434
		c0.2126-1.3864,2.3105-1.5249,3.6008-2.1539c11.8895-5.7966,23.822-11.5072,35.6547-17.4173
		c3.9346-1.9651,7.7871-2.4411,11.9437-1.0862c24.0591,7.8424,48.8312,12.5923,73.744,16.5841
		c11.5892,1.857,23.3179,2.8494,34.9872,4.1996c2.1882,0.2532,4.8597,0.491,5.3988,2.7058c0.546,2.244-1.7015,3.7326-3.5941,4.8725
		c-14.6335,8.8135-30.5027,15.2149-45.5054,23.3079c-3.2053,1.7292-6.4304,3.4286-9.5648,5.2802
		C1120.8379,559.972,1117.8221,561.696,1114.6199,560.6587z"/>
	<path d="M1099.3901,152.9703c-2.8511,1.4526-3.8689-0.6798-5.7963-3.1199c-10.119-12.8111-19.9539-25.9132-32.6595-36.4455
		c-5.3429-4.4291-5.1184-4.7578-0.7533-9.6323c14.2749-15.9407,31.9348-27.1064,50.9718-36.3398
		c4.1321-2.0042,7.7363-0.7275,10.1156,3.5879c8.595,15.5891,14.7795,32.1658,19.3986,49.2967
		c2.356,8.7377,3.8254,17.7131,5.7507,26.5691c0.8365,3.8477,0.4523,4.7899-4.3528,4.4366
		c-9.8738-0.7261-19.8855-1.2727-29.8152,0.379C1108.1841,152.3783,1104.0311,152.5299,1099.3901,152.9703z"/>
	<path d="M699.0563,497.4414c0.0895,3.041-1.4854,4.4505-3.5431,5.3284c-15.7819,6.7335-31.5857,13.4159-47.3816,20.1167
		c-5.3901,2.2866-10.602,5.019-16.543,5.8163c-2.8348,0.3806-4.0151-0.0063-3.3254-3.2994
		c3.3661-16.0718,5.2814-32.328,6.9596-48.6753c2.6755-26.0638,2.861-52.1402,2.6127-78.2618
		c-0.0679-7.1469-1.3234-14.2555-0.8085-21.4248c0.0498-0.6925-0.5245-1.8695,0.5828-2.0109
		c1.1331-0.1447,0.9492,1.0703,1.1473,1.8207c5.1471,19.4882,13.0651,37.8556,22.9844,55.3327
		c11.7288,20.6651,23.7885,41.1425,35.7487,61.6756C698.2516,495.1666,699.1633,496.3434,699.0563,497.4414z"/>
	<path d="M1236.7727,251.5502c-0.0972,1.8463-0.5568,2.6525-1.4161,3.6171c-10.9257,12.2621-23.7205,21.9447-38.1243,29.898
		c-12.501,6.9027-25.1523,13.6408-36.5983,22.3983c-5.947,4.5501-13.8993,5.3341-20.3689,9.1264
		c-6.7026,1.2184-4.9526,1.2184-7.8047,1.8708c-1.1049,0.8761-2.6826,0.7561-3.7896,0.0961
		c-1.5317-0.9132-0.025-2.1667,0.3379-2.9519c2.3788-5.1493,3.4618-10.5064,4.3214-16.1291
		c1.5045-9.8387,9.5569-14.8891,16.8445-20.3488c10.8468-8.1262,20.0817-17.8971,28.4913-28.482
		c8.7716-11.0406,16.1438-22.9224,21.0483-36.1747c1.3373-3.6132,6.2329-3.8213,6.7177-8.0509
		c0.0814-0.7107,1.4152,0.1566,1.92,0.7369c9.4187,10.8248,19.5596,21.1442,25.1952,34.6932
		C1234.9337,245.1827,1235.8425,248.7143,1236.7727,251.5502z"/>
	<path d="M1113.149,463.7657c-1.1904,0.9456-1.9882,1.7855-2.9553,2.3168c-16.121,8.8566-32.7864,16.5743-49.6971,23.788
		c-2.3555,1.0047-4.1676,0.2136-5.9612-0.9708c-7.6589-5.0572-16.3958-7.9201-25.0088-10.1502
		c-23.8961-6.1873-44.2693-18.9916-64.522-32.2273c-2.0479-1.3384-1.9804-2.0048,0.3039-3.6401
		c8.4897-6.0774,18.0616-10.0806,27.1403-15.0217c1.6403-0.8928,2.8409-1.0049,4.53-0.0923
		c15.9594,8.6229,32.7383,15.0751,50.3425,19.582c17.219,4.4083,34.5717,8.166,51.9127,12.0163
		c3.5337,0.7846,7.066,1.5851,10.6246,2.2594C1111.2295,461.8856,1112.1039,462.7215,1113.149,463.7657z"/>
	<path d="M1003.3347,528.1016c3.51,0.3523,6.3256,1.7964,9.1583,3.1432c23.2603,11.0587,46.2602,22.7277,70.9874,30.3495
		c3.9376,1.2137,7.9657,2.1414,11.8804,3.4205c3.1083,1.0157,3.6124,3.4981,1.0282,5.4574c-1.9594,1.4855-4.3071,2.4834-6.54,3.5795
		c-12.0383,5.9084-24.1333,11.7031-36.1082,17.7367c-2.1019,1.059-3.8511,1.191-5.4498-0.2088
		c-7.9916-6.9968-17.9133-10.5226-27.1961-15.1456c-15.668-7.8031-31.5844-15.0891-46.2582-24.7822
		c-2.6075-1.7225-6.0894-2.2462-8.6883-4.2706c-0.8463-0.6592-2.8338-1.598-0.116-2.6053
		c11.8193-4.3807,22.7145-10.7674,34.2418-15.7817C1001.322,528.5384,1002.4835,528.344,1003.3347,528.1016z"/>
	<path d="M953.3044,552.0791c2.2703-0.0977,4.0034,0.6042,5.4308,1.755c19.9576,16.0901,43.4947,25.5974,66.4307,36.2128
		c1.9542,0.9045,3.8389,1.9696,5.8262,2.7896c1.9021,0.7848,4.3264,2.2479,4.2415,3.6511c-0.1121,1.8523-2.1205,3.5711-4.1969,4.582
		c-8.3434,4.0615-16.5419,8.4321-25.2518,11.7009c-3.8548,1.4467-7.6639,3.0562-11.6051,4.2117
		c-1.7004,0.4985-5.441,3.869-4.5997-2.1232c0.1505-1.0721-1.326-1.6606-2.4121-2.2124
		c-18.7314-9.5153-36.8467-20.1087-54.1052-32.0778c-5.6218-3.8988-11.4222-7.4261-17.2836-10.8986
		c-1.7455-1.0341-1.6251-1.9094,0.2182-2.5356c11.4432-3.8875,21.9875-9.9004,33.3183-14.0385
		C950.678,552.5986,952.0433,551.7215,953.3044,552.0791z"/>
	<path d="M953.3326,449.0312c1.6213-0.2332,2.5312,0.6547,3.6663,1.4199c18.2466,12.2998,37.6697,22.3303,57.9938,30.7992
		c8.2136,3.4226,16.3632,7.1006,24.4745,10.8112c1.7235,0.7884,4.3328,1.0367,4.2379,3.5411
		c-0.0831,2.1946-1.5892,3.9572-3.5782,5.1196c-7.8835,4.6069-16.3661,7.9863-24.5192,12.0259
		c-8.1011,4.0139-14.501,3.6309-22.263-1.9916c-10.1033-7.3183-21.7746-12.4254-32.187-19.5195
		c-8.3638-5.6984-16.3084-11.8833-23.9868-18.441c-2.4881-2.125-4.5428-4.7411-8.0532-5.5227
		c-1.7767-0.3955-3.3579-2.0764-3.4164-3.8219c-0.0475-1.4156,1.9331-1.8935,3.3088-2.5737
		c7.1387-3.5297,14.2026-7.2145,21.2275-10.9668C951.3179,449.3338,952.2927,448.8967,953.3326,449.0312z"/>
	<path d="M871.226,665.5315c-0.6299,2.2661-2.2654,3.5079-4.3483,4.3452c-7.4866,3.0093-14.984,5.9933-22.4379,9.0821
		c-5.0837,2.1066-9.6242,5.5683-15.4677,5.7537c-2.1433,0.0681-3.0399-0.267-4.4769-2.3843
		c-4.2176-6.2142-9.246-11.8955-14.1384-17.6307c-9.139-10.7134-19.0205-20.8157-26.686-32.7299
		c-1.2052-1.8732-3.6688-2.2904-4.7817-4.4858c-0.8583-1.6933-0.8287-1.9913,0.9695-2.6576
		c11.7433-4.3519,23.426-8.8674,35.1346-13.3131c3.64-1.3821,6.4303-0.2499,8.5944,2.9003
		c9.8233,14.2994,21.5524,26.9415,34.1093,38.8316c3.2376,3.0656,6.9312,5.6459,10.3528,8.5234
		C869.301,662.8185,870.6702,663.8369,871.226,665.5315z"/>
	<path d="M936.7335,642.8528c-2.9417-0.0303-3.0845-0.1139-1.7254-2.4345c0.9586-1.6368-0.4476-1.7673-1.1219-2.0095
		c-3.8209-1.3716-6.6652-3.8398-9.3682-6.8549c-2.2658-2.5273-5.3707-4.3112-8.1387-6.3777
		c-13.0535-9.7451-26.1178-19.4757-39.1813-29.2073c-2.064-1.5376-3.3386-4.2101-6.7326-3.8058
		c-1.1902,0.1418-2.8015-1.3314-3.0472-2.8544c-0.0649-0.4021,1.7878-1.2073,2.8273-1.6791
		c9.1844-4.168,18.4124-8.2411,27.5672-12.4728c4.6457-2.1474,8.7077-2.1525,12.8437,1.4252
		c18.8,16.2623,40.6371,27.9087,61.9315,40.3702c1.1417,0.6681,2.4028,1.1656,3.4527,1.9506
		c3.4146,2.553,3.2472,6.4701-0.783,7.6644c-12.1457,3.5995-23.1243,9.6203-34.1711,15.5429
		C939.6505,642.88,938.2159,642.8025,936.7335,642.8528z"/>
	<path d="M778.7619,704.8159c-1.4581,0.2086-2.6304-0.0034-3.4302-0.9474c-4.394-5.1857-10.6882-8.7601-13.3659-15.3866
		c-4.4724-11.0685-13.1592-18.9653-20.8544-27.5367c-6.5954-7.3464-7.0111-8.9708,0.1907-15.7407
		c5.4362-5.1101,11.1429-9.9432,16.8811-14.7171c3.2006-2.6627,11.8561-0.9017,14.7567,2.8506
		c9.6035,12.4237,19.1377,24.9009,28.7358,37.3288c4.1835,5.4169,9.2947,9.949,14.2585,14.6124
		c2.0253,1.9026,3.0728,4.0423-0.1287,5.3781c-11.8391,4.9396-23.3619,10.6992-35.7914,14.1424
		C779.5508,704.928,779.0208,704.8159,778.7619,704.8159z"/>
	<path d="M1132.7279,258.0854c-0.4553-1.4929,0.9454-3.402,2.1719-5.3586c11.1614-17.8063,17.8481-37.3591,21.7875-57.8289
		c1.3676-7.1064,1.1479-14.5299,1.4945-21.8162c0.1696-3.5696,1.1248-4.7943,4.8627-3.1137
		c10.8708,4.8873,21.4865,10.0207,30.0615,18.6749c3.7185,3.7528,4.8496,6.8323,2.5122,12.2292
		c-11.6171,26.8217-27.8059,50.2899-49.3385,70.0544c-2.5138,2.3073-5.2633,4.356-7.8091,6.6303
		c-2.0464,1.8281-3.2716,0.3535-3.2668-1.2422C1135.2213,270.4588,1133.2346,264.9115,1132.7279,258.0854z"/>
	<path d="M1108.8522,218.6111c1.0592,5.6526-1.3684,4.228-4.3292,2.5149c-6.2701-3.6279-11.9701-8.1497-19.5967-9.3647
		c-9.129-1.4545-18.1527-1.271-27.0353,0.5114c-24.1708,4.8501-43.4147,17.4016-57.217,38.0152
		c-0.6945,1.0371-1.5216,2.9036-2.8224,2.2107c-1.6281-0.8672,0.1609-2.2482,0.4909-3.3629
		c7.501-25.3409,24.3605-43.7564,44.5283-59.5925c12.6896-9.9642,26.8961-17.1488,42.5363-21.2731
		c1.7351-0.4576,3.8055-1.7306,5.6918,0.9447C1101.616,184.1313,1105.8608,201.2168,1108.8522,218.6111z"/>
	<path d="M859.6035,592.9029c1.7066-0.1201,2.8113,0.5956,3.8481,1.8991c15.1739,19.0768,35.4789,32.2618,54.2702,47.1873
		c1.1586,0.9202,2.6094,1.7388,3.2737,2.9588c1.3116,2.4086,2.2791,5.1776-1.6304,6.3082
		c-10.9058,3.1538-20.6481,9.3526-31.7957,11.9562c-3.2695,0.7637-4.8091,0.1141-7.0491-2.3757
		c-3.8354-4.2631-8.5687-7.7151-12.8998-11.5361c-11.4156-10.0707-22.1863-20.7578-31.5745-32.7895
		c-2.1245-2.7228-2.9363-6.504-6.6158-8.0889c-0.4579-0.1973-2.7503-2.205-0.5131-3.59
		C838.4097,598.9559,848.8207,595.42,859.6035,592.9029z"/>
	<path d="M987.9961,523.1966c0.185,1.6448-1.4345,2.774-3.1824,3.2749c-9.9658,2.8558-18.7398,8.3124-27.9828,12.7261
		c-2.4467,1.1683-4.4131,1.2844-6.1772-0.5971c-7.7537-8.2701-18.1978-13.1172-26.3411-20.9045
		c-8.6024-8.2262-17.5402-16.105-26.0414-24.4316c-3.358-3.2891-8.2305-3.8289-11.386-7.5254
		c-1.9539-2.2887-1.533-3.2029,0.5535-4.2908c8.8015-4.5889,17.6815-9.0291,26.4326-13.7112
		c2.0385-1.0906,2.8635-0.0673,4.1475,1.0652c13.1675,11.6124,26.027,23.6048,41.0469,32.9213
		c8.5788,5.3213,17.0139,10.8738,25.5886,16.2018C986.4869,519.0642,987.8201,520.2825,987.9961,523.1966z"/>
	<path d="M852.6886,507.5358c3.2-5.0968,3.0307-12.3268,9.5659-15.4711c3.0346-1.4601,4.6559-4.762,8.5469-5.3484
		c3.0947-0.4664,5.4225-0.1515,7.3619,2.0149c15.5806,17.4047,34.835,30.5812,52.3775,45.7269
		c3.4244,2.9565,8.8438,5.8499,7.876,10.6851c-0.8687,4.3399-6.8815,4.3259-10.7979,5.8931
		c-6.7463,2.6996-13.5286,5.3113-20.2429,8.088c-2.9003,1.1994-5.4417,2.0787-6.5739-2.0809
		c-0.3288-1.2079-1.5138-1.6656-2.4375-2.3597c-15.2952-11.4937-29.1775-24.4206-40.5659-39.898
		C856.1146,512.497,851.8837,511.9966,852.6886,507.5358z"/>
	<path d="M1002.8544,218.0088c3.5968-19.6071,8.4874-38.4631,17.0634-56.2336c6.5861-13.6472,14.4733-26.4758,23.4554-38.6545
		c2.3367-3.1683,4.3367-5.0443,8.512-1.5964c11.4795,9.4801,22.8647,18.9263,31.6136,31.2013
		c2.1541,3.0221,1.5427,3.601-1.4534,4.6166c-15.3914,5.2176-29.5565,12.6799-41.8358,23.4677
		c-12.9768,11.4007-24.8865,23.7773-34.8223,37.9747c-0.5696,0.8139-0.4325,2.7946-2.0616,2.1401
		C1002.8087,220.7172,1002.9657,218.8315,1002.8544,218.0088z"/>
	<path d="M1146.7899,176.0209c-1.0496,16.4039-1.4827,32.8885-7.8141,48.4648c-2.5575,6.2917-6.6693,11.5957-10.2046,17.2698
		c-1.322,2.1217-2.4659,1.0571-3.9172-0.1855c-6.9094-5.9152-10.0092-13.5678-8.7435-22.3114
		c1.4733-10.1792-0.662-19.6248-4.006-28.9391c-2.87-7.9944-5.189-16.2001-8.889-23.899c-0.7341-1.5277-0.4808-2.6822,1.8192-3.5833
		c8.1154-3.1793,16.4137-1.6424,24.6251-1.4919c4.0671,0.0745,8.1023,1.3563,12.1724,1.9521
		c3.6886,0.5399,5.5959,2.2092,5.012,6.2431C1146.5375,171.6588,1146.7899,173.8581,1146.7899,176.0209z"/>
	<path d="M706.1864,681.7026c0.6054-4.8061,2.0681-8.515,6.2768-10.5891c4.9385-2.4338,9.4076-5.5034,13.3788-9.3927
		c1.4485-1.4186,2.5876-4.8287,3.0644-4.4502c2.4171,1.9184,5.8759,3.453,6.6752,6.4946
		c3.3843,12.877,13.2573,21.0939,21.2374,30.6973c2.5323,3.0476,4.8431,6.2862,7.1489,9.5134
		c2.2905,3.2059,1.3223,5.7623-2.1309,7.1169c-10.7207,4.2058-21.505,8.2496-32.2742,12.3311
		c-3.1758,1.2037-3.4385-1.7063-3.4956-3.2218c-0.1358-3.5971-1.8103-6.5563-3.8122-9.0209
		c-6.6708-8.2129-9.7153-18.3971-15.3207-27.1617C706.4254,683.2236,706.3285,682.1645,706.1864,681.7026z"/>
	<path d="M859.8542,579.8684c-2.5584,0.2296-4.1527,0.048-5.1343-4.4617c-1.2641-5.8076-5.9915-10.6454-11.0356-14.2854
		c-4.5113-3.2554-7.184-8.1218-11.2162-11.8035c-1.9789-1.8068-3.2969-4.7201-0.0503-7.5616
		c5.1699-4.5247,7.3323-11.1336,10.7332-16.8848c2.5486-4.3101,5.6378-4.8023,9.0341-0.936
		c9.0059,10.2516,18.6636,19.821,28.9204,28.8027c2.7441,2.403,5.4592,4.8406,8.2443,7.1954
		c2.6124,2.2087,2.1576,5.1145-0.1235,6.2931c-7.7641,4.0115-14.0908,10.5198-22.7643,12.9382
		C864.4833,579.7164,862.5586,579.833,859.8542,579.8684z"/>
	<path d="M846.865,580.0358c-6.3004-7.0725-12.7157-14.0544-19.3494-20.8128c-2.8716-2.9255-6.3542-2.9163-8.9412,0.6686
		c-4.2638,5.9089-8.2054,12.0303-11.0203,18.8057c-0.4583,1.1031-1.1837,2.355,0.113,3.0574
		c4.8401,2.6215,10.4717,12.2346,10.2043,13.4988c-0.075,0.3546-0.075,0.3546-0.0428,0.6984
		c0.0553,0.5912,0.5494,1.0377,1.1426,1.0641c3.9396,0.1754,7.092-1.9002,10.5146-3.6661c4.8281-2.491,10.0367-4.234,15.0159-6.4468
		C847.6179,585.5183,849.7805,583.3085,846.865,580.0358z"/>
	<path d="M814.3986,598.5848c0.0037-0.7847-1.3628-1.7405-2.46-1.9498c-1.6167-0.3083-3.1251-1.13-4.1411-2.4507
		c-1.1117-1.4451-2.2458-2.8733-3.3949-4.2888c-3.653-4.501-4.6268-4.476-8.8345-0.1966
		c-5.7653,5.8635-9.9583,13.3347-17.8323,17.0759c-1.687,0.8016-3.4092,2.584-2.6432,4.8829
		c0.8737,2.6219,3.3759,2.1083,5.6462,2.6113c11.8201-3.2753,22.6073-8.8933,33.1014-15.1358
		C814.0515,599.0075,814.3963,599.0625,814.3986,598.5848z"/>
	<path d="M686.5098,732.1002c-0.1352-2.1372-2.358-3.9237-3.4833-6.213c-2.083-4.2372-5.0784-7.9458-7.5664-11.9281
		c-1.432-2.2921-2.5062-6.2015-0.0813-8.3845c4.9441-4.4512,9.4957-9.2863,14.3755-13.7847
		c4.6974-4.3304,7.8322-3.9108,11.0043,1.6298c5.5648,9.7202,9.3182,20.4658,16.8356,29.0946
		c1.7594,2.0195,0.3535,3.648-1.9584,4.4119c-8.968,2.9628-17.9125,5.9977-26.908,8.8741
		C685.815,736.7318,685.7203,734.9352,686.5098,732.1002z"/>
	<path d="M637.3246,757.2988c-1.6697,0.0555-1.3058-0.6489-0.612-1.647c7.9194-11.3926,14.5287-23.7129,24.0625-33.961
		c0.6682-0.7183,1.5283-1.2841,2.0917-2.0695c3.0723-4.2833,4.3374-4.3228,6.9756,0.2017
		c2.9132,4.9964,5.7397,10.0501,8.394,15.1873c1.0967,2.1227,2.6382,5.113-1.18,6.0152
		c-12.8304,3.0317-23.4286,11.2474-35.8686,15.1234C639.9408,756.5374,638.6843,756.8949,637.3246,757.2988z"/>
</g>
</svg>
